<svg width="25" height="24" viewBox="0 0 25 24" fill="none" xmlns="http://www.w3.org/2000/svg">
<path d="M18.8639 11.1924V10.6267C18.8639 10.5421 18.8639 10.4997 18.8634 10.4639C18.8247 7.75855 16.6409 5.57479 13.9355 5.53605C13.8997 5.53553 13.8574 5.53553 13.7728 5.53553H13.2071M22.3996 11.8995V10.9095C22.3996 10.0649 22.3996 9.64258 22.3677 9.28659C22.0226 5.43191 18.9677 2.37699 15.113 2.03187C14.757 2 14.3347 2 13.49 2L12.5001 2M9.27785 9.22339C8.82461 10.2632 9.054 11.4744 9.85605 12.2765L12.2529 14.6733C13.0549 15.4753 14.2661 15.7047 15.3059 15.2515C16.3457 14.7982 17.557 15.0276 18.359 15.8297L19.8172 17.2879C19.8878 17.3585 19.9232 17.3938 19.9518 17.425C20.6548 18.1901 20.6548 19.3662 19.9518 20.1314C19.9232 20.1625 19.8878 20.1978 19.8172 20.2685L18.9309 21.1548C18.2091 21.8766 17.1685 22.1796 16.1721 21.9582C9.38248 20.4494 4.07995 15.1468 2.57115 8.35725C2.34971 7.36079 2.65272 6.32026 3.37451 5.59846L4.26085 4.71212C4.3315 4.64147 4.36682 4.60615 4.39794 4.57756C5.1631 3.87448 6.33921 3.87448 7.10436 4.57756C7.13548 4.60615 7.17081 4.64147 7.24145 4.71212L8.69965 6.17032C9.5017 6.97237 9.73109 8.18361 9.27785 9.22339Z" stroke="#F5F5F5" stroke-width="1.5" stroke-linecap="round"/>
</svg>
