<svg width="15" height="15" viewBox="0 0 15 15" fill="none" xmlns="http://www.w3.org/2000/svg">
<g clip-path="url(#clip0_588_64)">
<path d="M12.8009 2.09962H11.1087V1.76912C11.1087 1.67217 11.0756 1.59065 11.0095 1.52455C10.9434 1.45845 10.8663 1.4254 10.7782 1.4254C10.6812 1.4254 10.5997 1.45845 10.5336 1.52455C10.4675 1.59065 10.4345 1.67217 10.4345 1.76912V2.09962H3.66582V1.76912C3.66582 1.67217 3.63277 1.59065 3.56667 1.52455C3.50057 1.45845 3.41905 1.4254 3.3221 1.4254C3.23396 1.4254 3.15685 1.45845 3.09075 1.52455C3.02465 1.59065 2.9916 1.67217 2.9916 1.76912V2.09962H1.29944C1.01741 2.09962 0.777245 2.19877 0.578945 2.39707C0.380644 2.59537 0.281494 2.83554 0.281494 3.11756V12.5963C0.281494 12.8783 0.380644 13.1185 0.578945 13.3168C0.777245 13.5151 1.01741 13.6143 1.29944 13.6143H12.8009C13.0829 13.6143 13.323 13.5151 13.5213 13.3168C13.7196 13.1185 13.8188 12.8783 13.8188 12.5963V3.11756C13.8188 2.83554 13.7196 2.59537 13.5213 2.39707C13.323 2.19877 13.0829 2.09962 12.8009 2.09962ZM1.29944 2.78706H2.9916V3.79178C2.9916 3.88873 3.02465 3.97025 3.09075 4.03635C3.15685 4.10245 3.23396 4.1355 3.3221 4.1355C3.41905 4.1355 3.50057 4.10245 3.56667 4.03635C3.63277 3.97025 3.66582 3.88873 3.66582 3.79178V2.78706H10.4345V3.79178C10.4345 3.88873 10.4675 3.97025 10.5336 4.03635C10.5997 4.10245 10.6812 4.1355 10.7782 4.1355C10.8663 4.1355 10.9434 4.10245 11.0095 4.03635C11.0756 3.97025 11.1087 3.88873 11.1087 3.79178V2.78706H12.8009C12.8978 2.78706 12.9793 2.82011 13.0454 2.88621C13.1115 2.95231 13.1446 3.02943 13.1446 3.11756V4.80973H0.955715V3.11756C0.955715 3.02943 0.988765 2.95231 1.05487 2.88621C1.12097 2.82011 1.20249 2.78706 1.29944 2.78706ZM12.8009 12.94H1.29944C1.20249 12.94 1.12097 12.907 1.05487 12.8409C0.988765 12.7748 0.955715 12.6933 0.955715 12.5963V5.48395H13.1446V12.5963C13.1446 12.6933 13.1115 12.7748 13.0454 12.8409C12.9793 12.907 12.8978 12.94 12.8009 12.94ZM5.35798 7.51983H4.68376C4.58681 7.51983 4.50529 7.48678 4.43919 7.42068C4.37309 7.35458 4.34004 7.27306 4.34004 7.17611C4.34004 7.08798 4.37309 7.01086 4.43919 6.94476C4.50529 6.87866 4.58681 6.84561 4.68376 6.84561H5.35798C5.45493 6.84561 5.53645 6.87866 5.60255 6.94476C5.66865 7.01086 5.7017 7.08798 5.7017 7.17611C5.7017 7.27306 5.66865 7.35458 5.60255 7.42068C5.53645 7.48678 5.45493 7.51983 5.35798 7.51983ZM7.39386 7.51983H6.70642C6.61829 7.51983 6.54117 7.48678 6.47507 7.42068C6.40897 7.35458 6.37592 7.27306 6.37592 7.17611C6.37592 7.08798 6.40897 7.01086 6.47507 6.94476C6.54117 6.87866 6.61829 6.84561 6.70642 6.84561H7.39386C7.482 6.84561 7.55911 6.87866 7.62521 6.94476C7.69131 7.01086 7.72436 7.08798 7.72436 7.17611C7.72436 7.27306 7.69131 7.35458 7.62521 7.42068C7.55911 7.48678 7.482 7.51983 7.39386 7.51983ZM9.41653 7.51983H8.74231C8.64536 7.51983 8.56384 7.48678 8.49774 7.42068C8.43164 7.35458 8.39859 7.27306 8.39859 7.17611C8.39859 7.08798 8.43164 7.01086 8.49774 6.94476C8.56384 6.87866 8.64536 6.84561 8.74231 6.84561H9.41653C9.51347 6.84561 9.595 6.87866 9.6611 6.94476C9.7272 7.01086 9.76025 7.08798 9.76025 7.17611C9.76025 7.27306 9.7272 7.35458 9.6611 7.42068C9.595 7.48678 9.51347 7.51983 9.41653 7.51983ZM11.4524 7.51983H10.7782C10.6812 7.51983 10.5997 7.48678 10.5336 7.42068C10.4675 7.35458 10.4345 7.27306 10.4345 7.17611C10.4345 7.08798 10.4675 7.01086 10.5336 6.94476C10.5997 6.87866 10.6812 6.84561 10.7782 6.84561H11.4524C11.5405 6.84561 11.6177 6.87866 11.6838 6.94476C11.7499 7.01086 11.7829 7.08798 11.7829 7.17611C11.7829 7.27306 11.7499 7.35458 11.6838 7.42068C11.6177 7.48678 11.5405 7.51983 11.4524 7.51983ZM3.3221 8.86827H2.64788C2.55974 8.86827 2.48263 8.83522 2.41653 8.76912C2.35043 8.70302 2.31738 8.6259 2.31738 8.53777C2.31738 8.44082 2.35043 8.3593 2.41653 8.2932C2.48263 8.2271 2.55974 8.19405 2.64788 8.19405H3.3221C3.41905 8.19405 3.50057 8.2271 3.56667 8.2932C3.63277 8.3593 3.66582 8.44082 3.66582 8.53777C3.66582 8.6259 3.63277 8.70302 3.56667 8.76912C3.50057 8.83522 3.41905 8.86827 3.3221 8.86827ZM5.35798 8.86827H4.68376C4.58681 8.86827 4.50529 8.83522 4.43919 8.76912C4.37309 8.70302 4.34004 8.6259 4.34004 8.53777C4.34004 8.44082 4.37309 8.3593 4.43919 8.2932C4.50529 8.2271 4.58681 8.19405 4.68376 8.19405H5.35798C5.45493 8.19405 5.53645 8.2271 5.60255 8.2932C5.66865 8.3593 5.7017 8.44082 5.7017 8.53777C5.7017 8.6259 5.66865 8.70302 5.60255 8.76912C5.53645 8.83522 5.45493 8.86827 5.35798 8.86827ZM7.39386 8.86827H6.70642C6.61829 8.86827 6.54117 8.83522 6.47507 8.76912C6.40897 8.70302 6.37592 8.6259 6.37592 8.53777C6.37592 8.44082 6.40897 8.3593 6.47507 8.2932C6.54117 8.2271 6.61829 8.19405 6.70642 8.19405H7.39386C7.482 8.19405 7.55911 8.2271 7.62521 8.2932C7.69131 8.3593 7.72436 8.44082 7.72436 8.53777C7.72436 8.6259 7.69131 8.70302 7.62521 8.76912C7.55911 8.83522 7.482 8.86827 7.39386 8.86827ZM9.41653 8.86827H8.74231C8.64536 8.86827 8.56384 8.83522 8.49774 8.76912C8.43164 8.70302 8.39859 8.6259 8.39859 8.53777C8.39859 8.44082 8.43164 8.3593 8.49774 8.2932C8.56384 8.2271 8.64536 8.19405 8.74231 8.19405H9.41653C9.51347 8.19405 9.595 8.2271 9.6611 8.2932C9.7272 8.3593 9.76025 8.44082 9.76025 8.53777C9.76025 8.6259 9.7272 8.70302 9.6611 8.76912C9.595 8.83522 9.51347 8.86827 9.41653 8.86827ZM11.4524 8.86827H10.7782C10.6812 8.86827 10.5997 8.83522 10.5336 8.76912C10.4675 8.70302 10.4345 8.6259 10.4345 8.53777C10.4345 8.44082 10.4675 8.3593 10.5336 8.2932C10.5997 8.2271 10.6812 8.19405 10.7782 8.19405H11.4524C11.5405 8.19405 11.6177 8.2271 11.6838 8.2932C11.7499 8.3593 11.7829 8.44082 11.7829 8.53777C11.7829 8.6259 11.7499 8.70302 11.6838 8.76912C11.6177 8.83522 11.5405 8.86827 11.4524 8.86827ZM3.3221 10.2299H2.64788C2.55974 10.2299 2.48263 10.1969 2.41653 10.1308C2.35043 10.0647 2.31738 9.98316 2.31738 9.88621C2.31738 9.79808 2.35043 9.72096 2.41653 9.65486C2.48263 9.58876 2.55974 9.55571 2.64788 9.55571H3.3221C3.41905 9.55571 3.50057 9.58876 3.56667 9.65486C3.63277 9.72096 3.66582 9.79808 3.66582 9.88621C3.66582 9.98316 3.63277 10.0647 3.56667 10.1308C3.50057 10.1969 3.41905 10.2299 3.3221 10.2299ZM5.35798 10.2299H4.68376C4.58681 10.2299 4.50529 10.1969 4.43919 10.1308C4.37309 10.0647 4.34004 9.98316 4.34004 9.88621C4.34004 9.79808 4.37309 9.72096 4.43919 9.65486C4.50529 9.58876 4.58681 9.55571 4.68376 9.55571H5.35798C5.45493 9.55571 5.53645 9.58876 5.60255 9.65486C5.66865 9.72096 5.7017 9.79808 5.7017 9.88621C5.7017 9.98316 5.66865 10.0647 5.60255 10.1308C5.53645 10.1969 5.45493 10.2299 5.35798 10.2299ZM7.39386 10.2299H6.70642C6.61829 10.2299 6.54117 10.1969 6.47507 10.1308C6.40897 10.0647 6.37592 9.98316 6.37592 9.88621C6.37592 9.79808 6.40897 9.72096 6.47507 9.65486C6.54117 9.58876 6.61829 9.55571 6.70642 9.55571H7.39386C7.482 9.55571 7.55911 9.58876 7.62521 9.65486C7.69131 9.72096 7.72436 9.79808 7.72436 9.88621C7.72436 9.98316 7.69131 10.0647 7.62521 10.1308C7.55911 10.1969 7.482 10.2299 7.39386 10.2299ZM9.41653 10.2299H8.74231C8.64536 10.2299 8.56384 10.1969 8.49774 10.1308C8.43164 10.0647 8.39859 9.98316 8.39859 9.88621C8.39859 9.79808 8.43164 9.72096 8.49774 9.65486C8.56384 9.58876 8.64536 9.55571 8.74231 9.55571H9.41653C9.51347 9.55571 9.595 9.58876 9.6611 9.65486C9.7272 9.72096 9.76025 9.79808 9.76025 9.88621C9.76025 9.98316 9.7272 10.0647 9.6611 10.1308C9.595 10.1969 9.51347 10.2299 9.41653 10.2299ZM11.4524 10.2299H10.7782C10.6812 10.2299 10.5997 10.1969 10.5336 10.1308C10.4675 10.0647 10.4345 9.98316 10.4345 9.88621C10.4345 9.79808 10.4675 9.72096 10.5336 9.65486C10.5997 9.58876 10.6812 9.55571 10.7782 9.55571H11.4524C11.5405 9.55571 11.6177 9.58876 11.6838 9.65486C11.7499 9.72096 11.7829 9.79808 11.7829 9.88621C11.7829 9.98316 11.7499 10.0647 11.6838 10.1308C11.6177 10.1969 11.5405 10.2299 11.4524 10.2299ZM3.3221 11.5784H2.64788C2.55974 11.5784 2.48263 11.5453 2.41653 11.4792C2.35043 11.4131 2.31738 11.336 2.31738 11.2479C2.31738 11.1509 2.35043 11.0694 2.41653 11.0033C2.48263 10.9372 2.55974 10.9042 2.64788 10.9042H3.3221C3.41905 10.9042 3.50057 10.9372 3.56667 11.0033C3.63277 11.0694 3.66582 11.1509 3.66582 11.2479C3.66582 11.336 3.63277 11.4131 3.56667 11.4792C3.50057 11.5453 3.41905 11.5784 3.3221 11.5784ZM5.35798 11.5784H4.68376C4.58681 11.5784 4.50529 11.5453 4.43919 11.4792C4.37309 11.4131 4.34004 11.336 4.34004 11.2479C4.34004 11.1509 4.37309 11.0694 4.43919 11.0033C4.50529 10.9372 4.58681 10.9042 4.68376 10.9042H5.35798C5.45493 10.9042 5.53645 10.9372 5.60255 11.0033C5.66865 11.0694 5.7017 11.1509 5.7017 11.2479C5.7017 11.336 5.66865 11.4131 5.60255 11.4792C5.53645 11.5453 5.45493 11.5784 5.35798 11.5784ZM7.39386 11.5784H6.70642C6.61829 11.5784 6.54117 11.5453 6.47507 11.4792C6.40897 11.4131 6.37592 11.336 6.37592 11.2479C6.37592 11.1509 6.40897 11.0694 6.47507 11.0033C6.54117 10.9372 6.61829 10.9042 6.70642 10.9042H7.39386C7.482 10.9042 7.55911 10.9372 7.62521 11.0033C7.69131 11.0694 7.72436 11.1509 7.72436 11.2479C7.72436 11.336 7.69131 11.4131 7.62521 11.4792C7.55911 11.5453 7.482 11.5784 7.39386 11.5784ZM9.41653 11.5784H8.74231C8.64536 11.5784 8.56384 11.5453 8.49774 11.4792C8.43164 11.4131 8.39859 11.336 8.39859 11.2479C8.39859 11.1509 8.43164 11.0694 8.49774 11.0033C8.56384 10.9372 8.64536 10.9042 8.74231 10.9042H9.41653C9.51347 10.9042 9.595 10.9372 9.6611 11.0033C9.7272 11.0694 9.76025 11.1509 9.76025 11.2479C9.76025 11.336 9.7272 11.4131 9.6611 11.4792C9.595 11.5453 9.51347 11.5784 9.41653 11.5784ZM11.4524 11.5784H10.7782C10.6812 11.5784 10.5997 11.5453 10.5336 11.4792C10.4675 11.4131 10.4345 11.336 10.4345 11.2479C10.4345 11.1509 10.4675 11.0694 10.5336 11.0033C10.5997 10.9372 10.6812 10.9042 10.7782 10.9042H11.4524C11.5405 10.9042 11.6177 10.9372 11.6838 11.0033C11.7499 11.0694 11.7829 11.1509 11.7829 11.2479C11.7829 11.336 11.7499 11.4131 11.6838 11.4792C11.6177 11.5453 11.5405 11.5784 11.4524 11.5784Z" fill="#2F27CE"/>
</g>
<defs>
<clipPath id="clip0_588_64">
<rect width="14" height="14" fill="white" transform="matrix(1 0 0 -1 0.0500488 14.5)"/>
</clipPath>
</defs>
</svg>
