<svg width="20" height="21" viewBox="0 0 20 21" fill="none" xmlns="http://www.w3.org/2000/svg">
<path d="M10.5628 4.31128L10.0376 7.49471L10.036 7.50352C10.0118 7.66799 10.0289 7.83591 10.0859 7.9921C10.1429 8.14828 10.2379 8.28779 10.3623 8.39802C10.3769 8.41102 10.3922 8.42318 10.4081 8.43442L12.0499 9.57484C11.8429 10.6261 11.1417 11.8399 10.3412 12.5351L8.51677 11.6729C8.49848 11.6648 8.48034 11.6573 8.46116 11.6507C8.30477 11.5986 8.13792 11.5859 7.97545 11.6139C7.81299 11.6418 7.65996 11.7095 7.52997 11.8109L7.52272 11.8128L5.00804 13.844C4.83849 13.9774 4.71663 14.1621 4.66066 14.3705C4.60469 14.5788 4.61761 14.7997 4.69748 15.0001C5.02112 15.7906 5.62145 16.4363 6.38635 16.8165C7.15124 17.1968 8.0284 17.2856 8.85398 17.0664C13.6526 15.8014 16.5275 10.8681 15.2625 6.06951C15.0463 5.24315 14.5366 4.52376 13.8287 4.04571C13.1208 3.56766 12.2631 3.36364 11.4158 3.47176C11.2021 3.501 11.0036 3.59854 10.8499 3.74984C10.6961 3.90114 10.5955 4.09808 10.5628 4.31128ZM14.2956 6.32442C14.834 8.37596 14.5366 10.5573 13.4687 12.3899C12.4007 14.2224 10.6494 15.5565 8.59908 16.0994C8.00952 16.2572 7.38266 16.1951 6.83557 15.9246C6.28848 15.654 5.85857 15.1936 5.62613 14.6293C5.6286 14.6289 5.63103 14.6282 5.63338 14.6274L8.13928 12.6094L9.96376 13.4645C9.98169 13.4733 10.0003 13.4807 10.0194 13.4867C10.1829 13.5408 10.3577 13.5518 10.5267 13.5186C10.6957 13.4853 10.8533 13.409 10.9841 13.297C11.9597 12.4542 12.7821 11.0307 13.0306 9.75454C13.0626 9.58454 13.05 9.40914 12.9939 9.24549C12.9379 9.08183 12.8403 8.93552 12.7108 8.82084C12.6963 8.80808 12.681 8.79613 12.6652 8.78504L11.0245 7.64628L11.5478 4.47046C11.5478 4.47046 11.5466 4.46562 11.5461 4.46381C12.1522 4.38668 12.7657 4.53303 13.2718 4.87549C13.7778 5.21794 14.1418 5.73304 14.2956 6.32442Z" fill="#2F27CE"/>
</svg>
