<svg width="25" height="24" viewBox="0 0 25 24" fill="none" xmlns="http://www.w3.org/2000/svg">
<path d="M10.3478 8.76537L9.65485 8.47835L10.3478 8.76537ZM10.3478 5.23463L9.65485 5.52165L10.3478 5.23463ZM14.5 6.25C14.0858 6.25 13.75 6.58579 13.75 7C13.75 7.41421 14.0858 7.75 14.5 7.75V6.25ZM20.5 7.75C20.9142 7.75 21.25 7.41421 21.25 7C21.25 6.58579 20.9142 6.25 20.5 6.25V7.75ZM16.75 10C16.75 10.4142 17.0858 10.75 17.5 10.75C17.9142 10.75 18.25 10.4142 18.25 10H16.75ZM18.25 4C18.25 3.58579 17.9142 3.25 17.5 3.25C17.0858 3.25 16.75 3.58579 16.75 4H18.25ZM10.3478 18.7654L9.65485 18.4784L10.3478 18.7654ZM10.3478 15.2346L9.65485 15.5216L10.3478 15.2346ZM20.3478 18.7654L19.6549 18.4784L20.3478 18.7654ZM20.3478 15.2346L19.6549 15.5216L20.3478 15.2346ZM7.5 9.25C7.0238 9.25 6.70421 9.24959 6.45674 9.23271C6.21601 9.21628 6.0988 9.18681 6.02165 9.15485L5.44762 10.5407C5.73801 10.661 6.03754 10.7076 6.35464 10.7292C6.665 10.7504 7.04432 10.75 7.5 10.75V9.25ZM3.75 7C3.75 7.45568 3.74959 7.835 3.77077 8.14536C3.79241 8.46246 3.83905 8.76199 3.95933 9.05238L5.34515 8.47835C5.31319 8.4012 5.28372 8.28399 5.26729 8.04326C5.25041 7.79579 5.25 7.4762 5.25 7H3.75ZM6.02165 9.15485C5.71536 9.02798 5.47202 8.78464 5.34515 8.47835L3.95933 9.05238C4.23844 9.72621 4.77379 10.2616 5.44762 10.5407L6.02165 9.15485ZM9.75 7C9.75 7.4762 9.74959 7.79579 9.73271 8.04326C9.71628 8.28399 9.68681 8.4012 9.65485 8.47835L11.0407 9.05238C11.161 8.76199 11.2076 8.46246 11.2292 8.14536C11.2504 7.835 11.25 7.45568 11.25 7H9.75ZM7.5 10.75C7.95568 10.75 8.335 10.7504 8.64536 10.7292C8.96246 10.7076 9.26199 10.661 9.55238 10.5407L8.97835 9.15485C8.9012 9.18681 8.78399 9.21628 8.54326 9.23271C8.29579 9.24959 7.9762 9.25 7.5 9.25V10.75ZM9.65485 8.47835C9.52798 8.78464 9.28464 9.02798 8.97835 9.15485L9.55238 10.5407C10.2262 10.2616 10.7616 9.72621 11.0407 9.05238L9.65485 8.47835ZM7.5 4.75C7.9762 4.75 8.29579 4.75041 8.54326 4.76729C8.78399 4.78372 8.9012 4.81319 8.97835 4.84515L9.55238 3.45933C9.26199 3.33905 8.96246 3.29241 8.64536 3.27077C8.335 3.24959 7.95568 3.25 7.5 3.25V4.75ZM11.25 7C11.25 6.54432 11.2504 6.165 11.2292 5.85464C11.2076 5.53754 11.161 5.23801 11.0407 4.94762L9.65485 5.52165C9.68681 5.5988 9.71628 5.71601 9.73271 5.95674C9.74959 6.20421 9.75 6.5238 9.75 7H11.25ZM8.97835 4.84515C9.28464 4.97202 9.52798 5.21536 9.65485 5.52165L11.0407 4.94762C10.7616 4.27379 10.2262 3.73844 9.55238 3.45933L8.97835 4.84515ZM7.5 3.25C7.04432 3.25 6.665 3.24959 6.35464 3.27077C6.03754 3.29241 5.73801 3.33905 5.44762 3.45933L6.02165 4.84515C6.0988 4.81319 6.21601 4.78372 6.45674 4.76729C6.70421 4.75041 7.0238 4.75 7.5 4.75V3.25ZM5.25 7C5.25 6.5238 5.25041 6.20421 5.26729 5.95674C5.28372 5.71601 5.31319 5.5988 5.34515 5.52165L3.95933 4.94762C3.83905 5.23801 3.79241 5.53754 3.77077 5.85464C3.74959 6.165 3.75 6.54432 3.75 7H5.25ZM5.44762 3.45933C4.77379 3.73844 4.23844 4.27379 3.95933 4.94762L5.34515 5.52165C5.47202 5.21536 5.71536 4.97202 6.02165 4.84515L5.44762 3.45933ZM14.5 7.75H20.5V6.25H14.5V7.75ZM18.25 10V4H16.75V10H18.25ZM7.5 19.25C7.0238 19.25 6.70421 19.2496 6.45674 19.2327C6.21601 19.2163 6.0988 19.1868 6.02165 19.1549L5.44762 20.5407C5.73801 20.661 6.03754 20.7076 6.35464 20.7292C6.665 20.7504 7.04432 20.75 7.5 20.75V19.25ZM3.75 17C3.75 17.4557 3.74959 17.835 3.77077 18.1454C3.79241 18.4625 3.83905 18.762 3.95933 19.0524L5.34515 18.4784C5.31319 18.4012 5.28372 18.284 5.26729 18.0433C5.25041 17.7958 5.25 17.4762 5.25 17H3.75ZM6.02165 19.1549C5.71536 19.028 5.47202 18.7846 5.34515 18.4784L3.95933 19.0524C4.23844 19.7262 4.77379 20.2616 5.44762 20.5407L6.02165 19.1549ZM9.75 17C9.75 17.4762 9.74959 17.7958 9.73271 18.0433C9.71628 18.284 9.68681 18.4012 9.65485 18.4784L11.0407 19.0524C11.161 18.762 11.2076 18.4625 11.2292 18.1454C11.2504 17.835 11.25 17.4557 11.25 17H9.75ZM7.5 20.75C7.95568 20.75 8.335 20.7504 8.64536 20.7292C8.96246 20.7076 9.26199 20.661 9.55238 20.5407L8.97835 19.1549C8.9012 19.1868 8.78399 19.2163 8.54326 19.2327C8.29579 19.2496 7.9762 19.25 7.5 19.25V20.75ZM9.65485 18.4784C9.52798 18.7846 9.28464 19.028 8.97835 19.1549L9.55238 20.5407C10.2262 20.2616 10.7616 19.7262 11.0407 19.0524L9.65485 18.4784ZM7.5 14.75C7.9762 14.75 8.29579 14.7504 8.54326 14.7673C8.78399 14.7837 8.9012 14.8132 8.97835 14.8451L9.55238 13.4593C9.26199 13.339 8.96246 13.2924 8.64536 13.2708C8.335 13.2496 7.95568 13.25 7.5 13.25V14.75ZM11.25 17C11.25 16.5443 11.2504 16.165 11.2292 15.8546C11.2076 15.5375 11.161 15.238 11.0407 14.9476L9.65485 15.5216C9.68681 15.5988 9.71628 15.716 9.73271 15.9567C9.74959 16.2042 9.75 16.5238 9.75 17H11.25ZM8.97835 14.8451C9.28464 14.972 9.52798 15.2154 9.65485 15.5216L11.0407 14.9476C10.7616 14.2738 10.2262 13.7384 9.55238 13.4593L8.97835 14.8451ZM7.5 13.25C7.04432 13.25 6.665 13.2496 6.35464 13.2708C6.03754 13.2924 5.73801 13.339 5.44762 13.4593L6.02165 14.8451C6.0988 14.8132 6.21601 14.7837 6.45674 14.7673C6.70421 14.7504 7.0238 14.75 7.5 14.75V13.25ZM5.25 17C5.25 16.5238 5.25041 16.2042 5.26729 15.9567C5.28372 15.716 5.31319 15.5988 5.34515 15.5216L3.95933 14.9476C3.83905 15.238 3.79241 15.5375 3.77077 15.8546C3.74959 16.165 3.75 16.5443 3.75 17H5.25ZM5.44762 13.4593C4.77379 13.7384 4.23844 14.2738 3.95933 14.9476L5.34515 15.5216C5.47202 15.2154 5.71536 14.972 6.02165 14.8451L5.44762 13.4593ZM17.5 19.25C17.0238 19.25 16.7042 19.2496 16.4567 19.2327C16.216 19.2163 16.0988 19.1868 16.0216 19.1549L15.4476 20.5407C15.738 20.661 16.0375 20.7076 16.3546 20.7292C16.665 20.7504 17.0443 20.75 17.5 20.75V19.25ZM13.75 17C13.75 17.4557 13.7496 17.835 13.7708 18.1454C13.7924 18.4625 13.839 18.762 13.9593 19.0524L15.3451 18.4784C15.3132 18.4012 15.2837 18.284 15.2673 18.0433C15.2504 17.7958 15.25 17.4762 15.25 17H13.75ZM16.0216 19.1549C15.7154 19.028 15.472 18.7846 15.3451 18.4784L13.9593 19.0524C14.2384 19.7262 14.7738 20.2616 15.4476 20.5407L16.0216 19.1549ZM19.75 17C19.75 17.4762 19.7496 17.7958 19.7327 18.0433C19.7163 18.284 19.6868 18.4012 19.6549 18.4784L21.0407 19.0524C21.161 18.762 21.2076 18.4625 21.2292 18.1454C21.2504 17.835 21.25 17.4557 21.25 17H19.75ZM17.5 20.75C17.9557 20.75 18.335 20.7504 18.6454 20.7292C18.9625 20.7076 19.262 20.661 19.5524 20.5407L18.9784 19.1549C18.9012 19.1868 18.784 19.2163 18.5433 19.2327C18.2958 19.2496 17.9762 19.25 17.5 19.25V20.75ZM19.6549 18.4784C19.528 18.7846 19.2846 19.028 18.9784 19.1549L19.5524 20.5407C20.2262 20.2616 20.7616 19.7262 21.0407 19.0524L19.6549 18.4784ZM17.5 14.75C17.9762 14.75 18.2958 14.7504 18.5433 14.7673C18.784 14.7837 18.9012 14.8132 18.9784 14.8451L19.5524 13.4593C19.262 13.339 18.9625 13.2924 18.6454 13.2708C18.335 13.2496 17.9557 13.25 17.5 13.25V14.75ZM21.25 17C21.25 16.5443 21.2504 16.165 21.2292 15.8546C21.2076 15.5375 21.161 15.238 21.0407 14.9476L19.6549 15.5216C19.6868 15.5988 19.7163 15.716 19.7327 15.9567C19.7496 16.2042 19.75 16.5238 19.75 17H21.25ZM18.9784 14.8451C19.2846 14.972 19.528 15.2154 19.6549 15.5216L21.0407 14.9476C20.7616 14.2738 20.2262 13.7384 19.5524 13.4593L18.9784 14.8451ZM17.5 13.25C17.0443 13.25 16.665 13.2496 16.3546 13.2708C16.0375 13.2924 15.738 13.339 15.4476 13.4593L16.0216 14.8451C16.0988 14.8132 16.216 14.7837 16.4567 14.7673C16.7042 14.7504 17.0238 14.75 17.5 14.75V13.25ZM15.25 17C15.25 16.5238 15.2504 16.2042 15.2673 15.9567C15.2837 15.716 15.3132 15.5988 15.3451 15.5216L13.9593 14.9476C13.839 15.238 13.7924 15.5375 13.7708 15.8546C13.7496 16.165 13.75 16.5443 13.75 17H15.25ZM15.4476 13.4593C14.7738 13.7384 14.2384 14.2738 13.9593 14.9476L15.3451 15.5216C15.472 15.2154 15.7154 14.972 16.0216 14.8451L15.4476 13.4593Z" fill="#F1F8FF"/>
</svg>
