<svg width="25" height="25" viewBox="0 0 25 25" fill="none" xmlns="http://www.w3.org/2000/svg">
<path d="M15.26 16.43C14.8458 16.43 14.51 16.7658 14.51 17.18C14.51 17.5942 14.8458 17.93 15.26 17.93V16.43ZM21.26 17.93C21.6742 17.93 22.01 17.5942 22.01 17.18C22.01 16.7658 21.6742 16.43 21.26 16.43V17.93ZM14.26 13.93C14.6742 13.93 15.01 13.5942 15.01 13.18C15.01 12.7658 14.6742 12.43 14.26 12.43V13.93ZM14.26 21.93C14.6742 21.93 15.01 21.5942 15.01 21.18C15.01 20.7658 14.6742 20.43 14.26 20.43V21.93ZM14.51 6.17999C14.51 7.97492 13.0549 9.42999 11.26 9.42999V10.93C13.8834 10.93 16.01 8.80335 16.01 6.17999H14.51ZM11.26 9.42999C9.46508 9.42999 8.01001 7.97492 8.01001 6.17999H6.51001C6.51001 8.80335 8.63666 10.93 11.26 10.93V9.42999ZM8.01001 6.17999C8.01001 4.38507 9.46508 2.92999 11.26 2.92999V1.42999C8.63666 1.42999 6.51001 3.55664 6.51001 6.17999H8.01001ZM11.26 2.92999C13.0549 2.92999 14.51 4.38507 14.51 6.17999H16.01C16.01 3.55664 13.8834 1.42999 11.26 1.42999V2.92999ZM15.26 17.93H21.26V16.43H15.26V17.93ZM8.26001 13.93H14.26V12.43H8.26001V13.93ZM14.26 20.43H8.26001V21.93H14.26V20.43ZM8.26001 20.43C6.46508 20.43 5.01001 18.9749 5.01001 17.18H3.51001C3.51001 19.8033 5.63666 21.93 8.26001 21.93V20.43ZM8.26001 12.43C5.63666 12.43 3.51001 14.5566 3.51001 17.18H5.01001C5.01001 15.3851 6.46508 13.93 8.26001 13.93V12.43Z" fill="#433BFF"/>
</svg>
